# xmcd
#
# Track frame offsets:
#	150
#	10243
#	25851
#	36780
#	44080
#	55144
#	62275
#	80886
#	96515
#	110536
#	120683
#	133288
#	150377
#	167414
#	188774
#	208132
#	225330
#	240490
#	253418
#	266456
#	286754
#
# Disc length: 4196 seconds
#
# Revision: 0
# Processed by: cddbd v1.5.2PL0 Copyright (c) Steve Scherf et al.
# Submitted via: EZCDAudioConverter 2.1.7.1
#
DISCID=22106215
DTITLE=V/A - Folk Is Not A Four Letter Word V2
DYEAR=1900
DGENRE=
TTITLE0=Carol Batton - Intro 'Winter'
TTITLE1=Midsommar - Balladen Om Belfast
TTITLE2=Y Triban - Night In The City
TTITLE3=These Trails - Of Broken Links
TTITLE4=Chuck and Mary Perrin - Flying
TTITLE5=Jan and Lorraine - Number 33
TTITLE6=Elly and Rikkert - Heksenkring
TTITLE7=Susan Christie - Paint A Lady
TTITLE8=Paul Parrish - Dialogue Of Wind And Lover
TTITLE9=Emmanuelle Parrenin - Apres Londee
TTITLE10=Naomi - How Do?
TTITLE11=Parchment - Son Of God
TTITLE12=Alexis Korner and CCS - Sunrise
TTITLE13=Woody Simmons - Grey Today
TTITLE14=Vainica Doble - Dime Felix
TTITLE15=11.59 - The Waters Of Babylon
TTITLE16=Midwinter - Maids And Gentlemen
TTITLE17=Pentangle - I Saw An Angel
TTITLE18=Sibylle Baier - Softly
TTITLE19=Turid - Song
TTITLE20=Turid - På Tredje Dagen Uppståndna
EXTD=
EXTT0=
EXTT1=
EXTT2=
EXTT3=
EXTT4=
EXTT5=
EXTT6=
EXTT7=
EXTT8=
EXTT9=
EXTT10=
EXTT11=
EXTT12=
EXTT13=
EXTT14=
EXTT15=
EXTT16=
EXTT17=
EXTT18=
EXTT19=
EXTT20=
PLAYORDER=
